<svg width="1366" height="1061" viewBox="0 0 1366 1061" fill="none" xmlns="http://www.w3.org/2000/svg">
<g id="bg-shape-homepage" clip-path="url(#clip0_1509_11507)">
<path id="Vector" d="M-105.201 -374.597C-112.559 -374.562 -118.445 -368.676 -118.445 -361.318C-118.445 -223.262 -118.445 950.246 -118.445 1106.47C-118.445 1112.57 -110.882 1115.51 -106.775 1111.03C68.3098 920.472 207.632 702.642 307.905 462.533C417.282 200.624 475.085 -76.3428 479.876 -361.284C480.013 -368.779 474.058 -374.939 466.563 -374.939C368.651 -375.315 100 -375.007 -105.201 -374.597Z" fill="#151515"/>
<path id="Vector_2" d="M1487.59 1163.84C1487.59 1171.79 1481.24 1178.14 1473.26 1178.14C1324.23 1178.14 57.4514 1178.14 -111.194 1178.14C-117.769 1178.14 -120.946 1169.98 -116.107 1165.54C89.5918 976.544 324.734 826.148 583.927 717.905C866.651 599.836 1165.63 537.439 1473.22 532.267C1481.31 532.119 1487.96 538.547 1487.96 546.638C1488.37 652.405 1488 942.371 1487.55 1163.88L1487.59 1163.84Z" fill="#151515"/>
</g>
<defs>
<clipPath id="clip0_1509_11507">
<rect width="1366" height="1061" fill="white"/>
</clipPath>
</defs>
</svg>
