<svg width="107" height="40" viewBox="0 0 107 40" fill="none" xmlns="http://www.w3.org/2000/svg">
<path d="M1.97201 0.504181H5.87572V14.6197H13.9452V18.0242H1.97201V0.504181ZM14.9765 8.04927C15.5342 7.00741 16.3136 6.18064 17.3147 5.57233C18.3158 4.96402 19.4581 4.65818 20.7414 4.65818C22.0919 4.65818 23.2475 4.95393 24.2084 5.54544C25.1658 6.13695 25.8914 6.95027 26.3853 7.98541C26.8758 9.02055 27.1244 10.1868 27.1244 11.4908V12.3175H17.7682C17.8186 12.9191 17.9698 13.4569 18.2184 13.9307C18.467 14.408 18.8198 14.7743 19.2699 15.0331C19.7201 15.2919 20.2543 15.4196 20.8724 15.4196C21.5577 15.4196 22.1221 15.2818 22.5723 15.0062C23.0225 14.7306 23.3483 14.3441 23.5465 13.8434H26.9732C26.7716 14.7273 26.3887 15.5036 25.8209 16.1724C25.2532 16.8412 24.5443 17.3655 23.6944 17.7486C22.8444 18.1318 21.9105 18.3234 20.8926 18.3234C19.5085 18.3234 18.3058 18.0276 17.2912 17.4361C16.2733 16.8446 15.4939 16.0313 14.953 14.9961C14.4088 13.961 14.14 12.7948 14.14 11.4908C14.14 10.1868 14.4189 9.09113 14.9799 8.04927H14.9765ZM23.0191 8.49962C22.7705 8.12321 22.448 7.83081 22.0549 7.62244C21.6619 7.41407 21.2184 7.30988 20.7179 7.30988C20.2173 7.30988 19.7906 7.41743 19.3909 7.63588C18.9911 7.85434 18.6619 8.15009 18.4032 8.52314C18.1445 8.89956 17.9665 9.32975 17.8657 9.81035H23.4961C23.429 9.30958 23.2711 8.87267 23.0191 8.49626V8.49962ZM29.2341 11.2891C30.1109 10.6203 31.4312 10.2136 33.1983 10.0624L36.1513 9.83723V9.33647C36.1513 8.73488 35.9799 8.27108 35.6373 7.94844C35.2946 7.62244 34.7907 7.46112 34.1222 7.46112C33.504 7.46112 33.0035 7.61572 32.6205 7.92492C32.2375 8.23411 32.0124 8.62061 31.9452 9.08777H28.3405C28.5589 7.75351 29.1837 6.6814 30.2184 5.87144C31.2532 5.06148 32.5533 4.65818 34.1222 4.65818C35.9732 4.65818 37.401 5.10517 38.4021 5.99579C39.4032 6.88642 39.9038 8.10304 39.9038 9.63894V18.0242H36.2521V16.2732C35.9867 16.8748 35.5063 17.3655 34.8142 17.7486C34.1222 18.1318 33.326 18.3234 32.4256 18.3234C31.0583 18.3234 29.9665 17.9537 29.1468 17.2109C28.3304 16.4682 27.9206 15.4801 27.9206 14.2433C27.9206 12.9426 28.3573 11.9579 29.2341 11.2891ZM32.0863 15.3188C32.429 15.6179 32.9094 15.7691 33.5242 15.7691C34.0583 15.7691 34.5219 15.6649 34.9116 15.4566C35.3047 15.2482 35.607 14.939 35.8254 14.529C36.0404 14.1189 36.1513 13.6316 36.1513 13.0636V12.2873L33.9004 12.462C33.1513 12.5461 32.5734 12.7074 32.1737 12.9494C31.7739 13.1914 31.5723 13.5812 31.5723 14.1122C31.5723 14.613 31.7437 15.0129 32.0863 15.312V15.3188ZM11.3685 25.3408C10.6764 24.8904 9.81974 24.6653 8.80518 24.6653C7.79062 24.6653 6.93395 24.9308 6.19151 25.4651C5.44906 25.9995 4.87459 26.7086 4.46474 27.5925C4.05488 28.4764 3.85331 29.4108 3.85331 30.3955C3.85331 31.4642 4.0448 32.4389 4.42778 33.3228C4.81076 34.2067 5.37515 34.9125 6.1176 35.4368C6.86004 35.961 7.74022 36.2265 8.75814 36.2265C9.59129 36.2265 10.3102 36.0854 10.9116 35.7997C11.5129 35.5174 11.99 35.1309 12.3494 34.6469C12.7089 34.163 12.9608 33.6118 13.112 32.9934H8.0325V29.7132H17.0896V31.2391C17.0896 32.859 16.757 34.2907 16.0885 35.5309C15.42 36.7744 14.4592 37.7456 13.1994 38.4481C11.9396 39.1471 10.458 39.5 8.75814 39.5C6.92387 39.5 5.34156 39.0833 4.01793 38.2498C2.69094 37.4163 1.68981 36.3072 1.01456 34.9192C0.339307 33.5345 0 32.0255 0 30.3888C0 28.752 0.359463 27.2901 1.07503 25.8953C1.7906 24.5006 2.80852 23.3848 4.12879 22.5412C5.4457 21.6976 6.9709 21.2775 8.70775 21.2775C10.8578 21.2775 12.6383 21.7951 14.0493 22.8302C15.4603 23.8654 16.3808 25.3072 16.8142 27.159H12.8869C12.5711 26.3927 12.0639 25.7811 11.3718 25.3307L11.3685 25.3408ZM18.289 26.0903H21.9172V28.994C22.102 28.0597 22.4883 27.317 23.0796 26.7658C23.6708 26.2146 24.4502 25.939 25.4178 25.939C25.8511 25.939 26.177 25.9726 26.392 26.0398V29.6931C26.224 29.6763 25.9586 29.6695 25.5925 29.6695C24.8231 29.6695 24.1781 29.8141 23.654 30.1065C23.13 30.3989 22.7369 30.829 22.4782 31.397C22.2195 31.965 22.0919 32.6641 22.0919 33.5009V39.1572H18.289V26.0903ZM27.5107 29.1822C28.0684 28.1404 28.8478 27.3136 29.8489 26.7053C30.85 26.097 31.9923 25.7911 33.2756 25.7911C34.6261 25.7911 35.7817 26.0869 36.7425 26.6784C37.7 27.2699 38.4256 28.0832 38.9195 29.1184C39.41 30.1535 39.6586 31.3197 39.6586 32.6237V33.4505H30.2991C30.3495 34.0521 30.5006 34.5898 30.7492 35.0637C30.9978 35.5409 31.3506 35.9073 31.8008 36.1661C32.2509 36.4248 32.7851 36.5525 33.4032 36.5525C34.0886 36.5525 34.653 36.4148 35.1031 36.1392C35.5533 35.8636 35.8792 35.4771 36.0774 34.9763H39.504C39.3025 35.8602 38.9195 36.6366 38.3517 37.3054C37.784 37.9742 37.0751 38.4985 36.2252 38.8816C35.3752 39.2647 34.4413 39.4563 33.4234 39.4563C32.0393 39.4563 30.8366 39.1606 29.822 38.5691C28.8041 37.9775 28.0247 37.1642 27.4838 36.1291C26.943 35.0939 26.6708 33.9277 26.6708 32.6237C26.6708 31.3197 26.9497 30.2241 27.5107 29.1822ZM35.5533 29.6326C35.3047 29.2562 34.9822 28.9638 34.5891 28.7554C34.1961 28.547 33.7493 28.4428 33.2521 28.4428C32.7549 28.4428 32.3248 28.5504 31.9251 28.7688C31.5253 28.9873 31.1961 29.2831 30.9374 29.6561C30.6787 30.0325 30.5006 30.4627 30.3999 30.9433H36.0303C35.9631 30.4425 35.8053 30.0056 35.5533 29.6292V29.6326ZM41.7683 32.4221C42.6451 31.7533 43.9654 31.3466 45.7325 31.1954L48.6855 30.9702V30.4694C48.6855 29.8678 48.5141 29.404 48.1715 29.0814C47.8288 28.7554 47.3249 28.5941 46.6563 28.5941C46.0382 28.5941 45.5376 28.7487 45.1547 29.0579C44.7717 29.3671 44.5466 29.7536 44.4794 30.2207H40.8747C41.0931 28.8865 41.7179 27.8144 42.7526 27.0044C43.7874 26.1944 45.0875 25.7911 46.6563 25.7911C48.5074 25.7911 49.9352 26.2381 50.9363 27.1288C51.9374 28.0194 52.438 29.236 52.438 30.7719V39.1572H48.7863V37.4062C48.5209 38.0078 48.0404 38.4985 47.3484 38.8816C46.6563 39.2647 45.8601 39.4563 44.9598 39.4563C43.5925 39.4563 42.5007 39.0866 41.681 38.3439C40.8646 37.6011 40.4548 36.613 40.4548 35.3763C40.4548 34.0756 40.8915 33.0909 41.7683 32.4221ZM44.6205 36.4517C44.9632 36.7508 45.4436 36.9021 46.0584 36.9021C46.5925 36.9021 47.0561 36.7979 47.4458 36.5895C47.8389 36.3811 48.1412 36.0719 48.3596 35.6619C48.5746 35.2519 48.6855 34.7646 48.6855 34.1966V33.4202L46.4346 33.595C45.6855 33.679 45.1076 33.8404 44.7079 34.0823C44.3081 34.3243 44.1065 34.7142 44.1065 35.2452C44.1065 35.7459 44.2778 36.1459 44.6205 36.445V36.4517ZM54.8669 38.1422C54.158 37.3491 53.8019 36.1761 53.8019 34.6268V22.6622H57.5813V26.0903H60.5578V29.1453H57.5813V34.4756C57.5813 35.0267 57.7157 35.4435 57.9811 35.7258C58.2465 36.0081 58.6564 36.1526 59.2073 36.1526C59.7247 36.1526 60.1816 36.0854 60.5847 35.951V38.9791C60.3193 39.0967 59.9565 39.1841 59.4963 39.2412C59.036 39.2984 58.559 39.3286 58.0584 39.3286C56.6407 39.3286 55.5757 38.932 54.8669 38.1389V38.1422ZM45.1143 4.95393V6.87969C45.4637 6.19408 45.9744 5.65299 46.6395 5.25305C47.3081 4.85311 48.1144 4.65146 49.0651 4.65146C50.2174 4.65146 51.2454 4.95057 52.1558 5.55216C53.0662 6.15375 53.7717 6.98052 54.2823 8.0291C54.7896 9.08104 55.0449 10.2305 55.0449 11.484C55.0449 12.7376 54.7896 13.9072 54.2823 14.9524C53.7717 15.9943 53.0696 16.8177 52.1692 17.4193C51.2689 18.0209 50.2409 18.32 49.092 18.32C48.158 18.32 47.3652 18.1183 46.7135 17.7184C46.0617 17.3185 45.5712 16.7774 45.2386 16.0918V22.6252H41.4357V4.96065H45.1143V4.95393ZM45.6015 13.3896C45.8434 13.9408 46.1927 14.3744 46.653 14.6903C47.1132 15.0062 47.6407 15.1675 48.242 15.1675C48.8434 15.1675 49.3943 14.9961 49.8445 14.6533C50.2947 14.3105 50.644 13.8568 50.896 13.2888C51.1446 12.7208 51.2723 12.1226 51.2723 11.4874C51.2723 10.8522 51.148 10.254 50.896 9.686C50.6474 9.11801 50.2947 8.6643 49.8445 8.32149C49.3943 7.97869 48.8602 7.80729 48.242 7.80729C47.6239 7.80729 47.1132 7.96525 46.653 8.28452C46.1927 8.60044 45.8434 9.04071 45.6015 9.59861C45.3596 10.1565 45.2386 10.7884 45.2386 11.4874C45.2386 12.1865 45.3596 12.8385 45.6015 13.3896Z" fill="white"/>
<path d="M106.854 38.8505C106.854 39.032 106.71 39.1765 106.525 39.1765C103.115 39.1765 74.1196 39.1765 70.2596 39.1765C70.1084 39.1765 70.0379 38.9883 70.1487 38.8875C74.8587 34.5587 80.2406 31.1139 86.1734 28.6369C92.6437 25.9348 99.487 24.5065 106.528 24.3855C106.713 24.3855 106.864 24.53 106.868 24.7148C106.878 27.138 106.868 33.7757 106.858 38.8505H106.854ZM68.8923 0.540325C68.7109 0.540325 68.5664 0.684841 68.5664 0.869687C68.5664 4.28094 68.5664 33.2883 68.5664 37.15C68.5664 37.3012 68.7545 37.3718 68.8553 37.2609C73.1823 32.549 76.6258 27.1649 79.1017 21.2297C81.8027 14.7567 83.2305 7.91065 83.3514 0.866326C83.3514 0.68148 83.207 0.530242 83.0222 0.526881C80.6 0.516799 73.9651 0.526881 68.8923 0.536964V0.540325Z" fill="#D69A2D"/>
</svg>
